<svg width="680" height="660" viewBox="0 0 680 660" fill="none" xmlns="http://www.w3.org/2000/svg">
<path d="M293.339 660C436.377 660 552.332 652.775 552.332 643.863C552.332 634.951 436.377 627.726 293.339 627.726C150.302 627.726 34.3466 634.951 34.3466 643.863C34.3466 652.775 150.302 660 293.339 660Z" fill="#92E3A9"/>
<path opacity="0.8" d="M293.339 660C436.377 660 552.332 652.775 552.332 643.863C552.332 634.951 436.377 627.726 293.339 627.726C150.302 627.726 34.3466 634.951 34.3466 643.863C34.3466 652.775 150.302 660 293.339 660Z" fill="white"/>
<path d="M487.961 30.2363H227.544C209.565 30.2363 194.99 44.8135 194.99 62.7953V612.661C194.99 630.643 209.565 645.22 227.544 645.22H487.961C505.94 645.22 520.516 630.643 520.516 612.661V62.7953C520.516 44.8135 505.94 30.2363 487.961 30.2363Z" fill="#263238"/>
<path d="M506.04 97.7672H209.449V577.689H506.04V97.7672Z" fill="white" stroke="#263238" stroke-width="1.33739" stroke-miterlimit="10"/>
<path d="M403.211 292.102C428.316 266.992 428.316 226.282 403.211 201.172C378.105 176.063 337.4 176.063 312.294 201.172C287.189 226.282 287.188 266.992 312.294 292.102C337.4 317.211 378.105 317.211 403.211 292.102Z" fill="#92E3A9"/>
<path d="M442.154 547.51H273.368C272.988 547.512 272.612 547.439 272.26 547.295C271.909 547.152 271.589 546.94 271.32 546.672C271.05 546.404 270.836 546.085 270.691 545.735C270.545 545.384 270.47 545.008 270.47 544.628C270.467 544.246 270.541 543.868 270.686 543.516C270.831 543.163 271.044 542.843 271.314 542.573C271.583 542.303 271.904 542.09 272.256 541.945C272.609 541.8 272.987 541.727 273.368 541.729H442.154C442.534 541.729 442.91 541.804 443.261 541.95C443.612 542.096 443.93 542.309 444.198 542.579C444.466 542.848 444.678 543.168 444.821 543.52C444.965 543.871 445.038 544.248 445.036 544.628C445.036 545.392 444.732 546.125 444.192 546.666C443.651 547.206 442.918 547.51 442.154 547.51Z" fill="#92E3A9"/>
<path d="M447.65 347.079H267.856C264.145 347.079 261.137 350.087 261.137 353.798V374.996C261.137 378.707 264.145 381.716 267.856 381.716H447.65C451.36 381.716 454.368 378.707 454.368 374.996V353.798C454.368 350.087 451.36 347.079 447.65 347.079Z" fill="#92E3A9"/>
<path d="M447.65 411.861H267.856C264.145 411.861 261.137 414.87 261.137 418.581V439.779C261.137 443.49 264.145 446.498 267.856 446.498H447.65C451.36 446.498 454.368 443.49 454.368 439.779V418.581C454.368 414.87 451.36 411.861 447.65 411.861Z" fill="#92E3A9"/>
<path d="M389.762 278.71L370.846 267.818V258.819C373.585 255.505 375.569 251.634 376.66 247.475C377.311 247.706 377.997 247.825 378.688 247.827C381.033 247.827 382.524 240.554 382.776 235.359C385.507 229.578 381.787 226.193 381.787 226.193C381.787 226.193 383.329 224.652 384.351 218.468C385.373 212.285 380.748 214.866 377.146 209.202C373.544 203.538 370.964 197.371 359.135 197.371C355.876 197.264 352.659 198.14 349.904 199.885C347.149 201.63 344.983 204.164 343.687 207.157C340.743 207.168 337.809 207.511 334.941 208.179C331.322 209.202 330.3 221.049 333.383 225.691C334.763 228.227 335.5 231.064 335.528 233.952C334.707 232.946 333.852 232.678 333.383 234.957C332.361 240.102 336.483 247.307 336.483 247.307L338.611 246.704C339.683 251.149 341.751 255.292 344.659 258.819V267.818L325.743 278.71C323.534 279.986 321.699 281.82 320.423 284.029C319.147 286.238 318.474 288.743 318.472 291.294V297.528C329.722 306.22 343.537 310.936 357.753 310.936C371.969 310.936 385.784 306.22 397.034 297.528V291.294C397.035 288.743 396.364 286.236 395.087 284.026C393.81 281.817 391.974 279.983 389.762 278.71Z" fill="#263238"/>
<path d="M285.616 437.885C285.182 437.879 284.768 437.705 284.46 437.399C284.295 437.252 284.163 437.071 284.074 436.869C283.984 436.666 283.939 436.447 283.941 436.226C283.946 435.924 284.033 435.629 284.192 435.372L287.208 430.546L281.327 430.73C281.105 430.744 280.883 430.711 280.675 430.633C280.467 430.555 280.278 430.434 280.12 430.277C279.847 429.971 279.696 429.574 279.696 429.163C279.696 428.752 279.847 428.356 280.12 428.049C280.275 427.887 280.463 427.761 280.671 427.68C280.88 427.599 281.104 427.564 281.327 427.58L287.124 427.797L284.142 422.988C283.979 422.726 283.892 422.425 283.89 422.117C283.889 421.896 283.934 421.677 284.024 421.474C284.113 421.272 284.245 421.091 284.41 420.944C284.718 420.638 285.132 420.464 285.566 420.458C285.851 420.46 286.13 420.543 286.371 420.697C286.611 420.851 286.802 421.07 286.923 421.329L289.788 426.507L292.619 421.363C292.754 421.088 292.961 420.856 293.217 420.69C293.474 420.525 293.772 420.433 294.077 420.424C294.289 420.426 294.498 420.471 294.691 420.557C294.885 420.644 295.058 420.77 295.2 420.927C295.507 421.246 295.676 421.674 295.669 422.117C295.668 422.405 295.593 422.687 295.451 422.938L292.418 427.797L298.299 427.58C298.522 427.564 298.746 427.599 298.955 427.68C299.163 427.761 299.351 427.887 299.506 428.049C299.791 428.345 299.948 428.743 299.941 429.155C299.94 429.57 299.785 429.97 299.506 430.277C299.348 430.434 299.159 430.555 298.951 430.633C298.743 430.711 298.521 430.744 298.299 430.73L292.385 430.546L295.334 435.321C295.499 435.588 295.586 435.896 295.585 436.209C295.585 436.654 295.408 437.08 295.094 437.394C294.78 437.709 294.354 437.885 293.91 437.885C293.622 437.881 293.342 437.794 293.104 437.633C292.866 437.472 292.68 437.245 292.569 436.98L289.771 431.953L286.99 436.98C286.866 437.243 286.673 437.467 286.43 437.626C286.188 437.786 285.906 437.876 285.616 437.885Z" fill="#263238"/>
<path d="M312.792 437.885C312.358 437.879 311.944 437.705 311.636 437.399C311.471 437.252 311.339 437.071 311.25 436.869C311.16 436.666 311.115 436.447 311.116 436.226C311.121 435.924 311.208 435.629 311.368 435.372L314.383 430.546L308.519 430.73C308.296 430.74 308.072 430.705 307.862 430.628C307.652 430.55 307.46 430.431 307.296 430.277C307.074 430.048 306.926 429.757 306.871 429.442C306.816 429.127 306.858 428.803 306.99 428.512C307.121 428.221 307.338 427.976 307.611 427.81C307.884 427.644 308.2 427.563 308.519 427.58L314.3 427.797L311.317 422.988C311.155 422.726 311.068 422.425 311.066 422.117C311.064 421.896 311.11 421.677 311.199 421.474C311.289 421.272 311.421 421.091 311.585 420.944C311.893 420.638 312.308 420.464 312.742 420.458C313.027 420.46 313.306 420.543 313.546 420.697C313.787 420.851 313.978 421.07 314.099 421.329L316.964 426.507L319.795 421.363C319.93 421.088 320.136 420.856 320.393 420.69C320.65 420.525 320.947 420.433 321.253 420.424C321.465 420.423 321.675 420.468 321.868 420.554C322.062 420.641 322.235 420.768 322.375 420.927C322.531 421.084 322.654 421.269 322.737 421.473C322.82 421.678 322.863 421.896 322.861 422.117C322.855 422.406 322.775 422.689 322.627 422.938L319.594 427.797L325.492 427.613C325.712 427.598 325.934 427.633 326.139 427.714C326.345 427.795 326.53 427.921 326.681 428.082C326.967 428.379 327.124 428.777 327.117 429.188C327.116 429.604 326.961 430.004 326.681 430.311C326.527 430.467 326.341 430.588 326.135 430.666C325.93 430.744 325.711 430.777 325.492 430.763L319.561 430.579L322.509 435.355C322.675 435.622 322.762 435.929 322.761 436.243C322.761 436.687 322.584 437.114 322.27 437.428C321.956 437.742 321.53 437.919 321.085 437.919C320.798 437.915 320.518 437.827 320.28 437.666C320.042 437.506 319.856 437.279 319.745 437.014L316.947 431.987L314.166 437.014C314.038 437.27 313.842 437.487 313.6 437.641C313.358 437.794 313.078 437.879 312.792 437.885Z" fill="#263238"/>
<path d="M339.985 437.885C339.545 437.883 339.124 437.709 338.812 437.399C338.647 437.252 338.515 437.071 338.426 436.869C338.336 436.666 338.291 436.447 338.292 436.226C338.298 435.924 338.384 435.629 338.544 435.372L341.56 430.546L335.695 430.73C335.38 430.742 335.067 430.661 334.798 430.495C334.529 430.33 334.315 430.088 334.184 429.8C334.053 429.512 334.01 429.192 334.061 428.88C334.113 428.569 334.256 428.279 334.472 428.049C334.631 427.887 334.822 427.762 335.033 427.681C335.244 427.6 335.47 427.565 335.695 427.58L341.476 427.797L338.493 422.988C338.331 422.726 338.244 422.425 338.242 422.117C338.247 421.897 338.296 421.68 338.385 421.479C338.474 421.277 338.602 421.096 338.761 420.944C339.074 420.634 339.495 420.46 339.934 420.458C340.217 420.463 340.492 420.547 340.729 420.701C340.966 420.855 341.155 421.073 341.275 421.329L344.14 426.507L346.971 421.363C347.106 421.088 347.312 420.856 347.569 420.69C347.826 420.525 348.123 420.433 348.429 420.424C348.641 420.423 348.851 420.468 349.044 420.554C349.238 420.641 349.411 420.768 349.551 420.927C349.707 421.084 349.83 421.269 349.913 421.473C349.996 421.678 350.039 421.896 350.037 422.117C350.031 422.406 349.951 422.689 349.803 422.938L346.77 427.797L352.668 427.58C352.885 427.558 353.104 427.583 353.31 427.653C353.516 427.723 353.705 427.837 353.864 427.986C354.023 428.135 354.148 428.317 354.23 428.518C354.313 428.72 354.352 428.937 354.343 429.155C354.347 429.568 354.198 429.968 353.924 430.277C353.767 430.434 353.578 430.555 353.37 430.633C353.162 430.711 352.94 430.744 352.718 430.73L346.804 430.546L349.736 435.321C349.901 435.588 349.988 435.896 349.987 436.209C349.982 436.43 349.933 436.646 349.844 436.848C349.755 437.049 349.627 437.231 349.468 437.382C349.322 437.539 349.146 437.665 348.95 437.751C348.754 437.838 348.542 437.883 348.328 437.885C348.043 437.88 347.766 437.792 347.531 437.631C347.296 437.47 347.113 437.244 347.005 436.98L344.19 431.953L341.409 436.98C341.283 437.252 341.082 437.482 340.83 437.642C340.577 437.803 340.284 437.887 339.985 437.885Z" fill="#263238"/>
<path d="M367.16 437.885C366.721 437.883 366.3 437.709 365.988 437.399C365.672 437.09 365.491 436.668 365.485 436.226C365.48 435.925 365.561 435.628 365.719 435.372L368.735 430.546L362.871 430.73C362.647 430.74 362.424 430.705 362.214 430.628C362.004 430.55 361.811 430.431 361.648 430.277C361.375 429.971 361.224 429.574 361.224 429.163C361.224 428.752 361.375 428.356 361.648 428.049C361.81 427.892 362.002 427.77 362.212 427.69C362.422 427.609 362.646 427.572 362.871 427.58L368.668 427.797L365.703 422.988C365.54 422.726 365.453 422.425 365.451 422.117C365.457 421.897 365.505 421.68 365.594 421.479C365.684 421.277 365.811 421.096 365.971 420.944C366.283 420.634 366.704 420.46 367.144 420.458C367.429 420.46 367.708 420.543 367.948 420.697C368.189 420.851 368.38 421.07 368.501 421.329L371.349 426.507L374.181 421.363C374.315 421.088 374.522 420.856 374.779 420.69C375.036 420.525 375.333 420.433 375.638 420.424C375.85 420.423 376.06 420.468 376.254 420.554C376.447 420.641 376.62 420.768 376.761 420.927C376.916 421.084 377.039 421.269 377.122 421.473C377.206 421.678 377.248 421.896 377.247 422.117C377.241 422.406 377.16 422.689 377.012 422.938L373.979 427.797L379.877 427.58C380.094 427.558 380.313 427.583 380.519 427.653C380.726 427.723 380.914 427.837 381.073 427.986C381.232 428.135 381.357 428.317 381.44 428.518C381.522 428.72 381.561 428.937 381.553 429.155C381.556 429.568 381.407 429.968 381.134 430.277C380.976 430.434 380.787 430.555 380.579 430.633C380.371 430.711 380.149 430.744 379.927 430.73L374.013 430.546L376.945 435.321C377.11 435.588 377.197 435.896 377.196 436.209C377.198 436.431 377.152 436.65 377.063 436.852C376.973 437.054 376.842 437.235 376.677 437.382C376.531 437.539 376.355 437.665 376.159 437.751C375.963 437.838 375.752 437.883 375.538 437.885C375.253 437.88 374.976 437.792 374.74 437.631C374.505 437.47 374.322 437.244 374.214 436.98L371.399 431.953L368.618 436.98C368.49 437.257 368.284 437.491 368.025 437.651C367.766 437.812 367.465 437.894 367.16 437.885Z" fill="#263238"/>
<path d="M394.337 437.885C393.897 437.883 393.476 437.709 393.164 437.399C392.904 437.136 392.739 436.795 392.693 436.428C392.648 436.061 392.725 435.69 392.913 435.372L395.912 430.546L390.048 430.73C389.824 430.74 389.6 430.705 389.39 430.628C389.18 430.55 388.988 430.431 388.824 430.277C388.551 429.971 388.4 429.574 388.4 429.163C388.4 428.752 388.551 428.356 388.824 428.049C388.986 427.892 389.178 427.77 389.388 427.69C389.598 427.609 389.823 427.572 390.048 427.58L395.845 427.797L392.862 422.988C392.7 422.726 392.613 422.425 392.611 422.117C392.617 421.675 392.798 421.253 393.114 420.944C393.426 420.634 393.847 420.46 394.286 420.458C394.572 420.46 394.851 420.543 395.091 420.697C395.331 420.851 395.523 421.07 395.644 421.329L398.492 426.507L401.323 421.363C401.458 421.088 401.664 420.856 401.921 420.69C402.178 420.525 402.476 420.433 402.781 420.424C402.996 420.423 403.208 420.467 403.404 420.554C403.601 420.641 403.776 420.768 403.92 420.927C404.228 421.246 404.396 421.674 404.389 422.117C404.383 422.406 404.303 422.689 404.155 422.938L401.122 427.797L407.02 427.58C407.237 427.558 407.456 427.583 407.662 427.653C407.868 427.723 408.057 427.837 408.216 427.986C408.375 428.135 408.5 428.317 408.582 428.518C408.665 428.72 408.704 428.937 408.695 429.155C408.699 429.568 408.55 429.968 408.277 430.277C408.119 430.434 407.93 430.555 407.722 430.633C407.514 430.711 407.292 430.744 407.07 430.73L401.156 430.546L404.088 435.321C404.253 435.588 404.34 435.896 404.339 436.209C404.341 436.431 404.295 436.65 404.206 436.852C404.116 437.054 403.985 437.235 403.82 437.382C403.674 437.539 403.498 437.665 403.302 437.751C403.106 437.838 402.895 437.883 402.681 437.885C402.396 437.88 402.118 437.792 401.883 437.631C401.648 437.47 401.465 437.244 401.357 436.98L398.542 431.953L395.761 436.98C395.635 437.252 395.434 437.482 395.182 437.642C394.929 437.803 394.636 437.887 394.337 437.885Z" fill="#263238"/>
<path d="M421.512 437.885C421.079 437.879 420.664 437.705 420.356 437.399C420.192 437.252 420.06 437.071 419.97 436.869C419.881 436.666 419.835 436.447 419.837 436.226C419.842 435.924 419.929 435.629 420.088 435.372L423.087 430.546L417.223 430.73C417.008 430.746 416.791 430.717 416.587 430.645C416.383 430.573 416.196 430.46 416.039 430.311C415.881 430.163 415.756 429.984 415.671 429.785C415.587 429.586 415.545 429.371 415.548 429.155C415.547 428.95 415.586 428.746 415.664 428.557C415.741 428.367 415.856 428.194 416 428.049C416.155 427.887 416.343 427.761 416.551 427.68C416.76 427.599 416.983 427.565 417.206 427.58L423.004 427.797L420.021 422.988C419.859 422.726 419.772 422.425 419.77 422.117C419.776 421.675 419.957 421.253 420.273 420.944C420.585 420.634 421.006 420.46 421.445 420.458C421.731 420.46 422.01 420.543 422.25 420.697C422.491 420.851 422.682 421.07 422.803 421.329L425.651 426.507L428.499 421.363C428.632 421.091 428.836 420.86 429.09 420.695C429.344 420.529 429.637 420.436 429.94 420.424C430.155 420.423 430.367 420.467 430.563 420.554C430.76 420.641 430.935 420.768 431.079 420.927C431.387 421.246 431.555 421.674 431.548 422.117C431.548 422.405 431.473 422.687 431.331 422.938L428.298 427.797L434.179 427.58C434.402 427.565 434.626 427.599 434.834 427.68C435.043 427.761 435.231 427.887 435.385 428.049C435.671 428.345 435.827 428.743 435.821 429.155C435.82 429.57 435.665 429.97 435.385 430.277C435.227 430.434 435.038 430.555 434.83 430.633C434.623 430.711 434.401 430.744 434.179 430.73L428.265 430.546L431.197 435.321C431.362 435.588 431.449 435.896 431.448 436.209C431.442 436.651 431.261 437.073 430.945 437.382C430.64 437.694 430.225 437.875 429.789 437.885C429.504 437.88 429.227 437.792 428.992 437.631C428.757 437.47 428.574 437.244 428.466 436.98L425.651 431.953L422.87 436.98C422.749 437.242 422.558 437.465 422.319 437.625C422.079 437.784 421.8 437.874 421.512 437.885Z" fill="#263238"/>
<g style="mix-blend-mode:multiply">
<path d="M506.04 98.404H209.449V116.988H506.04V98.404Z" fill="#92E3A9"/>
</g>
<path d="M389.997 64.1693H325.492C324.328 64.1693 323.211 63.7068 322.388 62.8834C321.565 62.0601 321.102 60.9434 321.102 59.779C321.102 58.6146 321.565 57.4979 322.388 56.6745C323.211 55.8512 324.328 55.3886 325.492 55.3886H389.997C391.161 55.3886 392.278 55.8512 393.101 56.6745C393.924 57.4979 394.387 58.6146 394.387 59.779C394.387 60.9434 393.924 62.0601 393.101 62.8834C392.278 63.7068 391.161 64.1693 389.997 64.1693Z" fill="#92E3A9" stroke="#263238" stroke-width="1.33739" stroke-linecap="round" stroke-linejoin="round"/>
<path d="M375.337 604.802C375.34 601.321 374.311 597.917 372.379 595.021C370.447 592.125 367.7 589.867 364.484 588.533C361.269 587.199 357.731 586.849 354.316 587.528C350.902 588.206 347.766 589.882 345.305 592.344C342.843 594.806 341.168 597.942 340.489 601.357C339.811 604.772 340.161 608.311 341.494 611.527C342.828 614.742 345.085 617.49 347.981 619.422C350.877 621.354 354.28 622.384 357.761 622.38C362.421 622.376 366.889 620.523 370.184 617.227C373.479 613.931 375.332 609.463 375.337 604.802Z" fill="#92E3A9"/>
<path d="M366.675 595.887H348.848V613.717H366.675V595.887Z" fill="#92E3A9" stroke="#263238" stroke-width="1.33739" stroke-linecap="round" stroke-linejoin="round"/>
<path d="M570.109 402.478C570.109 402.478 546.753 343.124 567.546 336.069C589.193 328.713 588.238 367.908 587.4 387.011C585.641 427.831 581.134 435.422 577.766 425.452L570.109 402.478ZM563.089 448.777C569.506 457.156 571.315 448.476 559.738 409.281C554.31 390.848 542.514 353.564 524.419 367.556C507.045 380.962 548.395 429.557 548.395 429.557L563.089 448.777ZM550.691 482.794C556.806 488.224 556.923 481.37 542.397 453.067C535.578 439.812 521.152 412.984 509.34 426.256C497.997 439.058 536.65 470.176 536.65 470.176L550.691 482.794ZM537.287 523.246C543.402 528.692 543.52 521.821 528.993 493.536C522.174 480.281 507.748 453.436 495.936 466.724C484.661 479.56 523.196 510.678 523.196 510.678L537.287 523.246ZM575.99 440.902C566.205 444.722 573.979 448.878 614.844 448.761C634.011 448.761 673.15 447.889 664.806 426.591C656.814 406.131 598.609 432.188 598.609 432.188L575.99 440.902ZM564.848 468.115C554.494 469.908 561.296 475.538 601.373 483.548C620.155 487.319 658.674 494.273 654.737 471.818C650.967 450.168 588.74 464.144 588.74 464.144L564.848 468.115ZM552.383 501.344C543.57 502.618 549.199 507.528 582.893 515.236C598.693 518.855 631.113 525.642 628.298 506.489C625.617 488.056 572.673 498.479 572.673 498.479L552.383 501.344ZM542.916 532.127C534.288 534.322 540.403 538.612 574.75 542.701C590.835 544.611 623.791 547.929 618.982 529.178C614.341 511.181 562.804 527.117 562.804 527.117L542.916 532.127ZM593.415 407.505C588.388 418.766 598.827 417.056 634.313 386.089C650.933 371.561 684.275 341.164 657.87 326.032C632.52 311.487 605.26 381.665 605.26 381.665L593.415 407.505ZM544.223 572.227C538.912 575.327 544.123 576.533 568.484 571.674C579.911 569.412 603.149 564.384 595.291 554.464C587.685 544.913 556.521 565.021 556.521 565.021L544.223 572.227Z" fill="#92E3A9"/>
<path opacity="0.3" d="M570.109 402.478C570.109 402.478 546.753 343.124 567.546 336.069C589.193 328.713 588.238 367.908 587.4 387.011C585.641 427.831 581.134 435.422 577.766 425.452L570.109 402.478ZM563.089 448.777C569.506 457.156 571.315 448.476 559.738 409.281C554.31 390.848 542.514 353.564 524.419 367.556C507.045 380.962 548.395 429.557 548.395 429.557L563.089 448.777ZM550.691 482.794C556.806 488.224 556.923 481.37 542.397 453.067C535.578 439.812 521.152 412.984 509.34 426.256C497.997 439.058 536.65 470.176 536.65 470.176L550.691 482.794ZM537.287 523.246C543.402 528.692 543.52 521.821 528.993 493.536C522.174 480.281 507.748 453.436 495.936 466.724C484.661 479.56 523.196 510.678 523.196 510.678L537.287 523.246ZM575.99 440.902C566.205 444.722 573.979 448.878 614.844 448.761C634.011 448.761 673.15 447.889 664.806 426.591C656.814 406.131 598.609 432.188 598.609 432.188L575.99 440.902ZM564.848 468.115C554.494 469.908 561.296 475.538 601.373 483.548C620.155 487.319 658.674 494.273 654.737 471.818C650.967 450.168 588.74 464.144 588.74 464.144L564.848 468.115ZM552.383 501.344C543.57 502.618 549.199 507.528 582.893 515.236C598.693 518.855 631.113 525.642 628.298 506.489C625.617 488.056 572.673 498.479 572.673 498.479L552.383 501.344ZM542.916 532.127C534.288 534.322 540.403 538.612 574.75 542.701C590.835 544.611 623.791 547.929 618.982 529.178C614.341 511.181 562.804 527.117 562.804 527.117L542.916 532.127ZM593.415 407.505C588.388 418.766 598.827 417.056 634.313 386.089C650.933 371.561 684.275 341.164 657.87 326.032C632.52 311.487 605.26 381.665 605.26 381.665L593.415 407.505ZM544.223 572.227C538.912 575.327 544.123 576.533 568.484 571.674C579.911 569.412 603.149 564.384 595.291 554.464C587.685 544.913 556.521 565.021 556.521 565.021L544.223 572.227Z" fill="white"/>
<path d="M580.413 430.11L576.342 362.361L580.413 430.11ZM567.529 452.464L541.794 394.2L567.529 452.464ZM633.944 435.523L572.27 444.37L633.944 435.523ZM554.192 483.867L520.8 441.019L554.192 483.867ZM560.056 470.729L606.064 473.042L560.056 470.729ZM549.166 503.59L584.35 507.075L549.166 503.59ZM540.671 524.469L523.196 498.177L540.671 524.469ZM538.661 533.752L580.028 534.138L538.661 533.752ZM530.283 611.371C530.56 611.35 530.818 611.22 531 611.01C531.182 610.799 531.273 610.526 531.255 610.248C528.625 570.735 543.905 506.02 568.417 452.9C584.082 418.95 645.488 352.223 646.141 351.553C646.339 351.355 646.45 351.087 646.45 350.807C646.45 350.528 646.339 350.26 646.141 350.062C646.045 349.964 645.93 349.887 645.804 349.834C645.677 349.782 645.541 349.755 645.404 349.755C645.267 349.755 645.131 349.782 645.005 349.834C644.878 349.887 644.764 349.964 644.667 350.062C644.047 350.732 582.39 417.71 566.59 451.961C541.626 506.371 526.547 569.914 529.228 610.383C529.249 610.649 529.368 610.899 529.564 611.082C529.759 611.265 530.016 611.368 530.283 611.371ZM580.396 431.149C580.673 431.132 580.932 431.006 581.118 430.799C581.303 430.592 581.399 430.32 581.385 430.043L577.38 362.261C577.374 362.123 577.34 361.987 577.281 361.863C577.222 361.738 577.138 361.626 577.035 361.534C576.932 361.442 576.812 361.372 576.681 361.327C576.551 361.282 576.412 361.263 576.275 361.272C575.998 361.289 575.738 361.415 575.553 361.622C575.368 361.829 575.272 362.101 575.286 362.378L579.357 430.127C579.37 430.394 579.486 430.645 579.679 430.829C579.872 431.013 580.129 431.116 580.396 431.116V431.149ZM567.897 453.419C568.148 453.305 568.345 453.098 568.445 452.841C568.545 452.585 568.541 452.299 568.433 452.045L542.682 393.781C542.571 393.527 542.363 393.329 542.106 393.228C541.848 393.128 541.561 393.133 541.308 393.245C541.054 393.356 540.856 393.563 540.755 393.821C540.655 394.078 540.661 394.365 540.772 394.619L566.507 452.883C566.588 453.07 566.721 453.23 566.89 453.342C567.06 453.455 567.258 453.517 567.462 453.52C567.635 453.529 567.808 453.494 567.964 453.419H567.897ZM572.354 445.376L633.994 436.562C634.143 436.558 634.29 436.524 634.424 436.46C634.559 436.396 634.678 436.305 634.775 436.192C634.872 436.079 634.943 435.946 634.985 435.803C635.027 435.66 635.038 435.51 635.018 435.363C634.998 435.215 634.947 435.074 634.868 434.947C634.789 434.821 634.685 434.713 634.561 434.63C634.437 434.547 634.298 434.491 634.151 434.466C634.004 434.44 633.854 434.447 633.709 434.484L572.069 443.298C571.794 443.316 571.537 443.442 571.354 443.65C571.172 443.857 571.08 444.128 571.097 444.404C571.115 444.679 571.242 444.937 571.449 445.119C571.656 445.301 571.928 445.394 572.203 445.376H572.354ZM554.778 484.705C554.997 484.533 555.139 484.281 555.174 484.005C555.209 483.729 555.133 483.45 554.963 483.23L521.554 440.298C521.383 440.076 521.131 439.931 520.853 439.895C520.575 439.859 520.293 439.935 520.071 440.106C519.849 440.277 519.704 440.529 519.668 440.807C519.632 441.085 519.708 441.366 519.879 441.589L553.354 484.587C553.451 484.713 553.576 484.814 553.718 484.884C553.861 484.953 554.017 484.989 554.175 484.989C554.425 484.977 554.663 484.876 554.846 484.705H554.778ZM606.986 473.092C606.995 472.815 606.895 472.545 606.707 472.341C606.518 472.137 606.258 472.016 605.981 472.003L560.056 469.674C559.798 469.691 559.556 469.803 559.375 469.988C559.194 470.173 559.087 470.418 559.074 470.676C559.062 470.935 559.145 471.189 559.307 471.39C559.47 471.591 559.7 471.726 559.956 471.768L605.964 474.097C606.241 474.106 606.511 474.006 606.714 473.818C606.918 473.63 607.04 473.369 607.053 473.092H606.986ZM585.322 507.176C585.338 507.038 585.327 506.898 585.288 506.765C585.25 506.632 585.185 506.507 585.097 506.4C585.01 506.292 584.901 506.203 584.779 506.137C584.656 506.072 584.522 506.032 584.384 506.02L549.199 502.551C549.063 502.537 548.925 502.55 548.793 502.59C548.662 502.63 548.54 502.695 548.434 502.783C548.328 502.87 548.24 502.977 548.176 503.098C548.112 503.22 548.072 503.353 548.06 503.489C548.036 503.764 548.121 504.037 548.297 504.25C548.472 504.463 548.724 504.599 548.998 504.629L584.183 508.114H584.283C584.554 508.133 584.821 508.045 585.027 507.87C585.234 507.695 585.364 507.446 585.389 507.176H585.322ZM541.174 525.34C541.406 525.187 541.569 524.947 541.625 524.674C541.682 524.401 541.628 524.116 541.475 523.883L524.084 497.591C523.925 497.364 523.684 497.208 523.413 497.155C523.141 497.102 522.859 497.156 522.626 497.306C522.394 497.46 522.231 497.699 522.175 497.973C522.118 498.246 522.172 498.53 522.325 498.764L539.716 525.056C539.816 525.199 539.948 525.317 540.103 525.399C540.257 525.48 540.429 525.524 540.604 525.525C540.831 525.537 541.055 525.472 541.241 525.34H541.174ZM581.083 534.138C581.079 533.862 580.969 533.598 580.775 533.402C580.582 533.205 580.32 533.091 580.044 533.082L538.677 532.697C538.402 532.697 538.138 532.806 537.943 533.001C537.748 533.196 537.638 533.46 537.638 533.736C537.634 533.874 537.658 534.012 537.708 534.141C537.758 534.27 537.834 534.388 537.932 534.486C538.029 534.585 538.145 534.663 538.273 534.716C538.401 534.768 538.539 534.794 538.677 534.791L580.044 535.177C580.186 535.184 580.327 535.162 580.46 535.113C580.593 535.064 580.714 534.989 580.818 534.892C580.921 534.795 581.003 534.678 581.06 534.549C581.118 534.419 581.148 534.279 581.15 534.138H581.083ZM525.575 596.005C525.659 595.821 532.713 576.382 553.924 571.741C554.197 571.681 554.435 571.514 554.586 571.279C554.737 571.043 554.788 570.757 554.728 570.484C554.661 570.216 554.492 569.985 554.258 569.838C554.024 569.691 553.742 569.64 553.472 569.696C531.104 574.589 523.682 595.117 523.598 595.318C523.512 595.582 523.532 595.87 523.654 596.12C523.776 596.371 523.99 596.564 524.252 596.659H524.587C524.809 596.678 525.033 596.625 525.223 596.507C525.413 596.389 525.56 596.213 525.642 596.005H525.575ZM530.283 611.371C530.56 611.35 530.818 611.22 531 611.01C531.182 610.799 531.273 610.526 531.255 610.248C528.625 570.735 543.905 506.02 568.417 452.9C584.082 418.95 645.488 352.223 646.141 351.553C646.339 351.355 646.45 351.087 646.45 350.807C646.45 350.528 646.339 350.26 646.141 350.062C646.045 349.964 645.93 349.887 645.804 349.834C645.677 349.782 645.541 349.755 645.404 349.755C645.267 349.755 645.131 349.782 645.005 349.834C644.878 349.887 644.764 349.964 644.667 350.062C644.047 350.732 582.39 417.71 566.59 451.961C541.626 506.371 526.547 569.914 529.228 610.383C529.249 610.649 529.368 610.899 529.564 611.082C529.759 611.265 530.016 611.368 530.283 611.371ZM580.396 431.149C580.673 431.132 580.932 431.006 581.118 430.799C581.303 430.592 581.399 430.32 581.385 430.043L577.38 362.261C577.374 362.123 577.34 361.987 577.281 361.863C577.222 361.738 577.138 361.626 577.035 361.534C576.932 361.442 576.812 361.372 576.681 361.327C576.551 361.282 576.412 361.263 576.275 361.272C575.998 361.289 575.738 361.415 575.553 361.622C575.368 361.829 575.272 362.101 575.286 362.378L579.357 430.127C579.37 430.394 579.486 430.645 579.679 430.829C579.872 431.013 580.129 431.116 580.396 431.116V431.149ZM567.897 453.419C568.148 453.305 568.345 453.098 568.445 452.841C568.545 452.585 568.541 452.299 568.433 452.045L542.682 393.781C542.571 393.527 542.363 393.329 542.106 393.228C541.848 393.128 541.561 393.133 541.308 393.245C541.054 393.356 540.856 393.563 540.755 393.821C540.655 394.078 540.661 394.365 540.772 394.619L566.507 452.883C566.588 453.07 566.721 453.23 566.89 453.342C567.06 453.455 567.258 453.517 567.462 453.52C567.635 453.529 567.808 453.494 567.964 453.419H567.897ZM572.354 445.376L633.994 436.562C634.143 436.558 634.29 436.524 634.424 436.46C634.559 436.396 634.678 436.305 634.775 436.192C634.872 436.079 634.943 435.946 634.985 435.803C635.027 435.66 635.038 435.51 635.018 435.363C634.998 435.215 634.947 435.074 634.868 434.947C634.789 434.821 634.685 434.713 634.561 434.63C634.437 434.547 634.298 434.491 634.151 434.466C634.004 434.44 633.854 434.447 633.709 434.484L572.069 443.298C571.794 443.316 571.537 443.442 571.354 443.65C571.172 443.857 571.08 444.128 571.097 444.404C571.115 444.679 571.242 444.937 571.449 445.119C571.656 445.301 571.928 445.394 572.203 445.376H572.354ZM554.778 484.705C554.997 484.533 555.139 484.281 555.174 484.005C555.209 483.729 555.133 483.45 554.963 483.23L521.554 440.298C521.469 440.188 521.364 440.096 521.243 440.027C521.123 439.958 520.99 439.913 520.853 439.895C520.715 439.877 520.575 439.886 520.441 439.923C520.307 439.959 520.181 440.021 520.071 440.106C519.961 440.19 519.869 440.296 519.8 440.416C519.731 440.537 519.686 440.67 519.668 440.807C519.65 440.945 519.659 441.085 519.696 441.219C519.732 441.353 519.794 441.479 519.879 441.589L553.354 484.587C553.451 484.713 553.576 484.814 553.718 484.884C553.861 484.953 554.017 484.989 554.175 484.989C554.425 484.977 554.663 484.876 554.846 484.705H554.778ZM606.986 473.092C606.995 472.815 606.895 472.545 606.707 472.341C606.518 472.137 606.258 472.016 605.981 472.003L560.056 469.674C559.798 469.691 559.556 469.803 559.375 469.988C559.194 470.173 559.087 470.418 559.074 470.676C559.062 470.935 559.145 471.189 559.307 471.39C559.47 471.591 559.7 471.726 559.956 471.768L605.964 474.097C606.241 474.106 606.511 474.006 606.714 473.818C606.918 473.63 607.04 473.369 607.053 473.092H606.986ZM585.322 507.176C585.338 507.038 585.327 506.898 585.288 506.765C585.25 506.632 585.185 506.507 585.097 506.4C585.01 506.292 584.901 506.203 584.779 506.137C584.656 506.072 584.522 506.032 584.384 506.02L549.199 502.551C549.063 502.537 548.925 502.55 548.793 502.59C548.662 502.63 548.54 502.695 548.434 502.783C548.328 502.87 548.24 502.977 548.176 503.098C548.112 503.22 548.072 503.353 548.06 503.489C548.036 503.764 548.121 504.037 548.297 504.25C548.472 504.463 548.724 504.599 548.998 504.629L584.183 508.114H584.283C584.554 508.133 584.821 508.045 585.027 507.87C585.234 507.695 585.364 507.446 585.389 507.176H585.322ZM541.174 525.34C541.406 525.187 541.569 524.947 541.625 524.674C541.682 524.401 541.628 524.116 541.475 523.883L524.084 497.591C523.925 497.364 523.684 497.208 523.413 497.155C523.141 497.102 522.859 497.156 522.626 497.306C522.394 497.46 522.231 497.699 522.175 497.973C522.118 498.246 522.172 498.53 522.325 498.764L539.716 525.056C539.816 525.199 539.948 525.317 540.103 525.399C540.257 525.48 540.429 525.524 540.604 525.525C540.831 525.537 541.055 525.472 541.241 525.34H541.174ZM581.083 534.138C581.079 533.862 580.969 533.598 580.775 533.402C580.582 533.205 580.32 533.091 580.044 533.082L538.677 532.697C538.402 532.697 538.138 532.806 537.943 533.001C537.748 533.196 537.638 533.46 537.638 533.736C537.634 533.874 537.658 534.012 537.708 534.141C537.758 534.27 537.834 534.388 537.932 534.486C538.029 534.585 538.145 534.663 538.273 534.716C538.401 534.768 538.539 534.794 538.677 534.791L580.044 535.177C580.186 535.184 580.327 535.162 580.46 535.113C580.593 535.064 580.714 534.989 580.818 534.892C580.921 534.795 581.003 534.678 581.06 534.549C581.118 534.419 581.148 534.279 581.15 534.138H581.083ZM525.575 596.005C525.659 595.821 532.713 576.382 553.924 571.741C554.197 571.681 554.435 571.514 554.586 571.279C554.737 571.043 554.788 570.757 554.728 570.484C554.661 570.216 554.492 569.985 554.258 569.838C554.024 569.691 553.742 569.64 553.472 569.696C531.104 574.589 523.682 595.117 523.598 595.318C523.512 595.582 523.532 595.87 523.654 596.12C523.776 596.371 523.99 596.564 524.252 596.659H524.587C524.809 596.678 525.033 596.625 525.223 596.507C525.413 596.389 525.56 596.213 525.642 596.005H525.575Z" fill="#92E3A9"/>
<path opacity="0.2" d="M580.413 430.11L576.342 362.361L580.413 430.11ZM567.529 452.464L541.794 394.2L567.529 452.464ZM633.944 435.523L572.27 444.37L633.944 435.523ZM554.192 483.867L520.8 441.019L554.192 483.867ZM560.056 470.729L606.064 473.042L560.056 470.729ZM549.166 503.59L584.35 507.075L549.166 503.59ZM540.671 524.469L523.196 498.177L540.671 524.469ZM538.661 533.752L580.028 534.138L538.661 533.752ZM530.283 611.371C530.56 611.35 530.818 611.22 531 611.01C531.182 610.799 531.273 610.526 531.255 610.248C528.625 570.735 543.905 506.02 568.417 452.9C584.082 418.95 645.488 352.223 646.141 351.553C646.339 351.355 646.45 351.087 646.45 350.807C646.45 350.528 646.339 350.26 646.141 350.062C646.045 349.964 645.93 349.887 645.804 349.834C645.677 349.782 645.541 349.755 645.404 349.755C645.267 349.755 645.131 349.782 645.005 349.834C644.878 349.887 644.764 349.964 644.667 350.062C644.047 350.732 582.39 417.71 566.59 451.961C541.626 506.371 526.547 569.914 529.228 610.383C529.249 610.649 529.368 610.899 529.564 611.082C529.759 611.265 530.016 611.368 530.283 611.371ZM580.396 431.149C580.673 431.132 580.932 431.006 581.118 430.799C581.303 430.592 581.399 430.32 581.385 430.043L577.38 362.261C577.374 362.123 577.34 361.987 577.281 361.863C577.222 361.738 577.138 361.626 577.035 361.534C576.932 361.442 576.812 361.372 576.681 361.327C576.551 361.282 576.412 361.263 576.275 361.272C575.998 361.289 575.738 361.415 575.553 361.622C575.368 361.829 575.272 362.101 575.286 362.378L579.357 430.127C579.37 430.394 579.486 430.645 579.679 430.829C579.872 431.013 580.129 431.116 580.396 431.116V431.149ZM567.897 453.419C568.148 453.305 568.345 453.098 568.445 452.841C568.545 452.585 568.541 452.299 568.433 452.045L542.682 393.781C542.571 393.527 542.363 393.329 542.106 393.228C541.848 393.128 541.561 393.133 541.308 393.245C541.054 393.356 540.856 393.563 540.755 393.821C540.655 394.078 540.661 394.365 540.772 394.619L566.507 452.883C566.588 453.07 566.721 453.23 566.89 453.342C567.06 453.455 567.258 453.517 567.462 453.52C567.635 453.529 567.808 453.494 567.964 453.419H567.897ZM572.354 445.376L633.994 436.562C634.143 436.558 634.29 436.524 634.424 436.46C634.559 436.396 634.678 436.305 634.775 436.192C634.872 436.079 634.943 435.946 634.985 435.803C635.027 435.66 635.038 435.51 635.018 435.363C634.998 435.215 634.947 435.074 634.868 434.947C634.789 434.821 634.685 434.713 634.561 434.63C634.437 434.547 634.298 434.491 634.151 434.466C634.004 434.44 633.854 434.447 633.709 434.484L572.069 443.298C571.794 443.316 571.537 443.442 571.354 443.65C571.172 443.857 571.08 444.128 571.097 444.404C571.115 444.679 571.242 444.937 571.449 445.119C571.656 445.301 571.928 445.394 572.203 445.376H572.354ZM554.778 484.705C554.997 484.533 555.139 484.281 555.174 484.005C555.209 483.729 555.133 483.45 554.963 483.23L521.554 440.298C521.383 440.076 521.131 439.931 520.853 439.895C520.575 439.859 520.293 439.935 520.071 440.106C519.849 440.277 519.704 440.529 519.668 440.807C519.632 441.085 519.708 441.366 519.879 441.589L553.354 484.587C553.451 484.713 553.576 484.814 553.718 484.884C553.861 484.953 554.017 484.989 554.175 484.989C554.425 484.977 554.663 484.876 554.846 484.705H554.778ZM606.986 473.092C606.995 472.815 606.895 472.545 606.707 472.341C606.518 472.137 606.258 472.016 605.981 472.003L560.056 469.674C559.798 469.691 559.556 469.803 559.375 469.988C559.194 470.173 559.087 470.418 559.074 470.676C559.062 470.935 559.145 471.189 559.307 471.39C559.47 471.591 559.7 471.726 559.956 471.768L605.964 474.097C606.241 474.106 606.511 474.006 606.714 473.818C606.918 473.63 607.04 473.369 607.053 473.092H606.986ZM585.322 507.176C585.338 507.038 585.327 506.898 585.288 506.765C585.25 506.632 585.185 506.507 585.097 506.4C585.01 506.292 584.901 506.203 584.779 506.137C584.656 506.072 584.522 506.032 584.384 506.02L549.199 502.551C549.063 502.537 548.925 502.55 548.793 502.59C548.662 502.63 548.54 502.695 548.434 502.783C548.328 502.87 548.24 502.977 548.176 503.098C548.112 503.22 548.072 503.353 548.06 503.489C548.036 503.764 548.121 504.037 548.297 504.25C548.472 504.463 548.724 504.599 548.998 504.629L584.183 508.114H584.283C584.554 508.133 584.821 508.045 585.027 507.87C585.234 507.695 585.364 507.446 585.389 507.176H585.322ZM541.174 525.34C541.406 525.187 541.569 524.947 541.625 524.674C541.682 524.401 541.628 524.116 541.475 523.883L524.084 497.591C523.925 497.364 523.684 497.208 523.413 497.155C523.141 497.102 522.859 497.156 522.626 497.306C522.394 497.46 522.231 497.699 522.175 497.973C522.118 498.246 522.172 498.53 522.325 498.764L539.716 525.056C539.816 525.199 539.948 525.317 540.103 525.399C540.257 525.48 540.429 525.524 540.604 525.525C540.831 525.537 541.055 525.472 541.241 525.34H541.174ZM581.083 534.138C581.079 533.862 580.969 533.598 580.775 533.402C580.582 533.205 580.32 533.091 580.044 533.082L538.677 532.697C538.402 532.697 538.138 532.806 537.943 533.001C537.748 533.196 537.638 533.46 537.638 533.736C537.634 533.874 537.658 534.012 537.708 534.141C537.758 534.27 537.834 534.388 537.932 534.486C538.029 534.585 538.145 534.663 538.273 534.716C538.401 534.768 538.539 534.794 538.677 534.791L580.044 535.177C580.186 535.184 580.327 535.162 580.46 535.113C580.593 535.064 580.714 534.989 580.818 534.892C580.921 534.795 581.003 534.678 581.06 534.549C581.118 534.419 581.148 534.279 581.15 534.138H581.083ZM525.575 596.005C525.659 595.821 532.713 576.382 553.924 571.741C554.197 571.681 554.435 571.514 554.586 571.279C554.737 571.043 554.788 570.757 554.728 570.484C554.661 570.216 554.492 569.985 554.258 569.838C554.024 569.691 553.742 569.64 553.472 569.696C531.104 574.589 523.682 595.117 523.598 595.318C523.512 595.582 523.532 595.87 523.654 596.12C523.776 596.371 523.99 596.564 524.252 596.659H524.587C524.809 596.678 525.033 596.625 525.223 596.507C525.413 596.389 525.56 596.213 525.642 596.005H525.575ZM530.283 611.371C530.56 611.35 530.818 611.22 531 611.01C531.182 610.799 531.273 610.526 531.255 610.248C528.625 570.735 543.905 506.02 568.417 452.9C584.082 418.95 645.488 352.223 646.141 351.553C646.339 351.355 646.45 351.087 646.45 350.807C646.45 350.528 646.339 350.26 646.141 350.062C646.045 349.964 645.93 349.887 645.804 349.834C645.677 349.782 645.541 349.755 645.404 349.755C645.267 349.755 645.131 349.782 645.005 349.834C644.878 349.887 644.764 349.964 644.667 350.062C644.047 350.732 582.39 417.71 566.59 451.961C541.626 506.371 526.547 569.914 529.228 610.383C529.249 610.649 529.368 610.899 529.564 611.082C529.759 611.265 530.016 611.368 530.283 611.371ZM580.396 431.149C580.673 431.132 580.932 431.006 581.118 430.799C581.303 430.592 581.399 430.32 581.385 430.043L577.38 362.261C577.374 362.123 577.34 361.987 577.281 361.863C577.222 361.738 577.138 361.626 577.035 361.534C576.932 361.442 576.812 361.372 576.681 361.327C576.551 361.282 576.412 361.263 576.275 361.272C575.998 361.289 575.738 361.415 575.553 361.622C575.368 361.829 575.272 362.101 575.286 362.378L579.357 430.127C579.37 430.394 579.486 430.645 579.679 430.829C579.872 431.013 580.129 431.116 580.396 431.116V431.149ZM567.897 453.419C568.148 453.305 568.345 453.098 568.445 452.841C568.545 452.585 568.541 452.299 568.433 452.045L542.682 393.781C542.571 393.527 542.363 393.329 542.106 393.228C541.848 393.128 541.561 393.133 541.308 393.245C541.054 393.356 540.856 393.563 540.755 393.821C540.655 394.078 540.661 394.365 540.772 394.619L566.507 452.883C566.588 453.07 566.721 453.23 566.89 453.342C567.06 453.455 567.258 453.517 567.462 453.52C567.635 453.529 567.808 453.494 567.964 453.419H567.897ZM572.354 445.376L633.994 436.562C634.143 436.558 634.29 436.524 634.424 436.46C634.559 436.396 634.678 436.305 634.775 436.192C634.872 436.079 634.943 435.946 634.985 435.803C635.027 435.66 635.038 435.51 635.018 435.363C634.998 435.215 634.947 435.074 634.868 434.947C634.789 434.821 634.685 434.713 634.561 434.63C634.437 434.547 634.298 434.491 634.151 434.466C634.004 434.44 633.854 434.447 633.709 434.484L572.069 443.298C571.794 443.316 571.537 443.442 571.354 443.65C571.172 443.857 571.08 444.128 571.097 444.404C571.115 444.679 571.242 444.937 571.449 445.119C571.656 445.301 571.928 445.394 572.203 445.376H572.354ZM554.778 484.705C554.997 484.533 555.139 484.281 555.174 484.005C555.209 483.729 555.133 483.45 554.963 483.23L521.554 440.298C521.469 440.188 521.364 440.096 521.243 440.027C521.123 439.958 520.99 439.913 520.853 439.895C520.715 439.877 520.575 439.886 520.441 439.923C520.307 439.959 520.181 440.021 520.071 440.106C519.961 440.19 519.869 440.296 519.8 440.416C519.731 440.537 519.686 440.67 519.668 440.807C519.65 440.945 519.659 441.085 519.696 441.219C519.732 441.353 519.794 441.479 519.879 441.589L553.354 484.587C553.451 484.713 553.576 484.814 553.718 484.884C553.861 484.953 554.017 484.989 554.175 484.989C554.425 484.977 554.663 484.876 554.846 484.705H554.778ZM606.986 473.092C606.995 472.815 606.895 472.545 606.707 472.341C606.518 472.137 606.258 472.016 605.981 472.003L560.056 469.674C559.798 469.691 559.556 469.803 559.375 469.988C559.194 470.173 559.087 470.418 559.074 470.676C559.062 470.935 559.145 471.189 559.307 471.39C559.47 471.591 559.7 471.726 559.956 471.768L605.964 474.097C606.241 474.106 606.511 474.006 606.714 473.818C606.918 473.63 607.04 473.369 607.053 473.092H606.986ZM585.322 507.176C585.338 507.038 585.327 506.898 585.288 506.765C585.25 506.632 585.185 506.507 585.097 506.4C585.01 506.292 584.901 506.203 584.779 506.137C584.656 506.072 584.522 506.032 584.384 506.02L549.199 502.551C549.063 502.537 548.925 502.55 548.793 502.59C548.662 502.63 548.54 502.695 548.434 502.783C548.328 502.87 548.24 502.977 548.176 503.098C548.112 503.22 548.072 503.353 548.06 503.489C548.036 503.764 548.121 504.037 548.297 504.25C548.472 504.463 548.724 504.599 548.998 504.629L584.183 508.114H584.283C584.554 508.133 584.821 508.045 585.027 507.87C585.234 507.695 585.364 507.446 585.389 507.176H585.322ZM541.174 525.34C541.406 525.187 541.569 524.947 541.625 524.674C541.682 524.401 541.628 524.116 541.475 523.883L524.084 497.591C523.925 497.364 523.684 497.208 523.413 497.155C523.141 497.102 522.859 497.156 522.626 497.306C522.394 497.46 522.231 497.699 522.175 497.973C522.118 498.246 522.172 498.53 522.325 498.764L539.716 525.056C539.816 525.199 539.948 525.317 540.103 525.399C540.257 525.48 540.429 525.524 540.604 525.525C540.831 525.537 541.055 525.472 541.241 525.34H541.174ZM581.083 534.138C581.079 533.862 580.969 533.598 580.775 533.402C580.582 533.205 580.32 533.091 580.044 533.082L538.677 532.697C538.402 532.697 538.138 532.806 537.943 533.001C537.748 533.196 537.638 533.46 537.638 533.736C537.634 533.874 537.658 534.012 537.708 534.141C537.758 534.27 537.834 534.388 537.932 534.486C538.029 534.585 538.145 534.663 538.273 534.716C538.401 534.768 538.539 534.794 538.677 534.791L580.044 535.177C580.186 535.184 580.327 535.162 580.46 535.113C580.593 535.064 580.714 534.989 580.818 534.892C580.921 534.795 581.003 534.678 581.06 534.549C581.118 534.419 581.148 534.279 581.15 534.138H581.083ZM525.575 596.005C525.659 595.821 532.713 576.382 553.924 571.741C554.197 571.681 554.435 571.514 554.586 571.279C554.737 571.043 554.788 570.757 554.728 570.484C554.661 570.216 554.492 569.985 554.258 569.838C554.024 569.691 553.742 569.64 553.472 569.696C531.104 574.589 523.682 595.117 523.598 595.318C523.512 595.582 523.532 595.87 523.654 596.12C523.776 596.371 523.99 596.564 524.252 596.659H524.587C524.809 596.678 525.033 596.625 525.223 596.507C525.413 596.389 525.56 596.213 525.642 596.005H525.575Z" fill="black"/>
<path d="M557.643 581.828H510.211V591.648H514.35L522.911 645.22H544.944L553.505 591.648H557.643V581.828Z" fill="#92E3A9"/>
<path opacity="0.3" d="M557.643 581.828H510.211V591.648H514.35L522.911 645.22H544.944L553.505 591.648H557.643V581.828Z" fill="white"/>
<path d="M130.602 284.893L75.4291 266.879L70.52 253.91L59.3111 253.558L38.971 249.704L41.4172 253.91L67.0182 272.493L73.3347 275.643L131.038 305.789L130.602 284.893Z" fill="white" stroke="#263238" stroke-width="1.00396" stroke-miterlimit="10"/>
<path d="M70.52 253.91L65.259 250.759L54.7539 254.613L56.4964 256.708L70.52 253.91Z" fill="white" stroke="#263238" stroke-width="1.00396" stroke-linejoin="round"/>
<path d="M130.602 284.893L75.4291 266.879L70.52 253.91L59.3111 253.558L38.971 249.704L41.4172 253.91L67.0182 272.493L73.3347 275.643L131.038 305.789L130.602 284.893Z" fill="white"/>
<mask id="mask0_7_2327" style="mask-type:luminance" maskUnits="userSpaceOnUse" x="38" y="249" width="94" height="57">
<path d="M130.602 284.893L75.4291 266.879L70.52 253.91L59.3111 253.558L38.971 249.704L41.4172 253.91L67.0182 272.493L73.3347 275.643L131.038 305.789L130.602 284.893Z" fill="white"/>
</mask>
<g mask="url(#mask0_7_2327)">
<path opacity="0.5" d="M130.602 284.893L75.4291 266.879L70.52 253.91L59.3111 253.558L38.971 249.704L41.4172 253.91L67.0182 272.493L73.3347 275.643L131.038 305.789L130.602 284.893Z" fill="#92E3A9" stroke="#263238" stroke-width="1.00396" stroke-miterlimit="10"/>
</g>
<path d="M130.602 284.893L75.4291 266.879L70.52 253.91L59.3111 253.558L38.971 249.704L41.4172 253.91L67.0182 272.493L73.3347 275.643L131.038 305.789L130.602 284.893Z" stroke="#263238" stroke-width="1.00396" stroke-miterlimit="10"/>
<path d="M70.52 253.91L65.259 250.759L54.7539 254.613L56.4964 256.708L70.52 253.91Z" fill="white"/>
<mask id="mask1_7_2327" style="mask-type:luminance" maskUnits="userSpaceOnUse" x="54" y="250" width="17" height="7">
<path d="M70.52 253.91L65.259 250.759L54.7539 254.613L56.4964 256.708L70.52 253.91Z" fill="white"/>
</mask>
<g mask="url(#mask1_7_2327)">
<path opacity="0.5" d="M70.52 253.91L65.259 250.759L54.7539 254.613L56.4964 256.708L70.52 253.91Z" fill="#92E3A9" stroke="#263238" stroke-width="1.00396" stroke-linejoin="round"/>
</g>
<path d="M70.52 253.91L65.259 250.759L54.7539 254.613L56.4964 256.708L70.52 253.91Z" stroke="#263238" stroke-width="1.00396" stroke-linejoin="round"/>
<path d="M142.314 167.979C142.314 167.979 141.459 175.52 143.587 180.363C145.715 185.206 157.527 201.611 157.527 201.611L135.478 219.289C135.478 219.289 126.33 200.857 124.587 197.874C122.845 194.891 120.751 182.055 126.43 172.856C132.11 163.656 140.286 161.176 142.314 167.979Z" fill="white"/>
<mask id="mask2_7_2327" style="mask-type:luminance" maskUnits="userSpaceOnUse" x="122" y="164" width="36" height="56">
<path d="M142.314 167.979C142.314 167.979 141.459 175.52 143.587 180.363C145.715 185.206 157.527 201.611 157.527 201.611L135.478 219.289C135.478 219.289 126.33 200.857 124.587 197.874C122.845 194.891 120.751 182.055 126.43 172.856C132.11 163.656 140.286 161.176 142.314 167.979Z" fill="white"/>
</mask>
<g mask="url(#mask2_7_2327)">
<g style="mix-blend-mode:multiply" opacity="0.5">
<path d="M130.988 192.21L140.554 212.05L135.461 219.306L125.844 202.13L130.988 192.21Z" fill="#92E3A9"/>
</g>
</g>
<path d="M142.314 167.979C142.314 167.979 141.459 175.52 143.587 180.363C145.715 185.206 157.527 201.611 157.527 201.611L135.478 219.289C135.478 219.289 126.33 200.857 124.587 197.874C122.845 194.891 120.751 182.055 126.43 172.856C132.11 163.656 140.286 161.176 142.314 167.979Z" stroke="#263238" stroke-width="1.00396" stroke-miterlimit="10"/>
<path d="M149.149 154.171C147.792 145.793 138.192 128.751 122.962 129.405C113.077 129.84 108.452 131.834 104.163 134.264C100.667 136.324 97.4081 138.763 94.4456 141.537C87.0065 150.468 84.3928 152.915 85.8337 159.752C85.7155 162.479 86.1427 165.202 87.0903 167.761C89.3689 173.844 90.9271 177.816 92.9041 180.715C92.301 183.547 90.726 191.02 90.6423 192.729C90.5585 194.439 95.6686 193.249 98.2489 192.595C103.041 203.32 111.82 210.76 114.551 211.615C119.309 213.106 126.832 205.28 130.82 199.214C134.807 193.148 131.792 186.328 131.808 183.614C131.825 180.899 140.772 174.933 144.089 173.04C147.407 171.146 150.49 162.533 149.149 154.171Z" fill="white"/>
<mask id="mask3_7_2327" style="mask-type:luminance" maskUnits="userSpaceOnUse" x="85" y="129" width="65" height="83">
<path d="M149.149 154.171C147.792 145.793 138.192 128.751 122.962 129.405C113.077 129.84 108.452 131.834 104.163 134.264C100.667 136.324 97.4081 138.763 94.4456 141.537C87.0065 150.468 84.3928 152.915 85.8337 159.752C85.7155 162.479 86.1427 165.202 87.0903 167.761C89.3689 173.844 90.9271 177.816 92.9041 180.715C92.301 183.547 90.726 191.02 90.6423 192.729C90.5585 194.439 95.6686 193.249 98.2489 192.595C103.041 203.32 111.82 210.76 114.551 211.615C119.309 213.106 126.832 205.28 130.82 199.214C134.807 193.148 131.792 186.328 131.808 183.614C131.825 180.899 140.772 174.933 144.089 173.04C147.407 171.146 150.49 162.533 149.149 154.171Z" fill="white"/>
</mask>
<g mask="url(#mask3_7_2327)">
<g style="mix-blend-mode:multiply" opacity="0.5">
<path d="M85.9005 159.752C85.7823 162.479 86.2095 165.202 87.1571 167.761C89.4358 173.844 90.9939 177.816 92.971 180.715C92.3678 183.547 90.7929 191.02 90.7091 192.729C90.6253 194.439 95.7355 193.249 98.3157 192.595C103.108 203.32 111.887 210.76 114.618 211.615C119.376 213.106 126.899 205.281 130.887 199.214C131.883 197.7 132.53 195.983 132.78 194.187C132.562 193.4 132.411 192.914 132.411 192.914C132.411 192.914 130.166 201.544 125.71 200.421C121.253 199.298 114.434 190.367 110.63 187.283C106.827 184.2 108.385 180.145 107.631 175.554C106.877 170.962 95.6182 166.924 94.8642 164.293C94.1103 161.662 96.7408 150.77 96.7408 150.77C96.7408 150.77 101.013 145.072 100.092 147.418C99.4404 149.453 99.2041 151.597 99.397 153.724C99.5898 155.851 100.208 157.918 101.214 159.802C101.921 161.288 103.041 162.539 104.441 163.404C105.841 164.269 107.46 164.712 109.106 164.678L113.194 144.419L104.565 137.28L94.5124 141.47C87.0063 150.468 84.4429 152.915 85.9005 159.752Z" fill="#92E3A9"/>
</g>
</g>
<path d="M149.149 154.171C147.792 145.793 138.192 128.751 122.962 129.405C113.077 129.84 108.452 131.834 104.163 134.264C100.667 136.324 97.4081 138.763 94.4456 141.537C87.0065 150.468 84.3928 152.915 85.8337 159.752C85.7155 162.479 86.1427 165.202 87.0903 167.761C89.3689 173.844 90.9271 177.816 92.9041 180.715C92.301 183.547 90.726 191.02 90.6423 192.729C90.5585 194.439 95.6686 193.249 98.2489 192.595C103.041 203.32 111.82 210.76 114.551 211.615C119.309 213.106 126.832 205.28 130.82 199.214C134.807 193.148 131.792 186.328 131.808 183.614C131.825 180.899 140.772 174.933 144.089 173.04C147.407 171.146 150.49 162.533 149.149 154.171Z" stroke="#263238" stroke-miterlimit="10"/>
<path d="M94.982 175.654L96.6575 180.447C96.6575 180.447 100.26 181.636 104.649 176.844" stroke="#263238" stroke-miterlimit="10" stroke-linecap="round"/>
<path d="M107.364 198.041C107.364 198.041 111.351 197.639 112.96 192.042" stroke="#263238" stroke-miterlimit="10" stroke-linecap="round"/>
<path d="M92.1838 171.649C92.1838 171.649 93.3734 168.046 100.561 168.046" stroke="#263238" stroke-miterlimit="10" stroke-linecap="round"/>
<path d="M129.027 122.735C123.804 121.984 118.537 121.581 113.261 121.529C113.261 121.529 97.4783 112.43 82.3153 122.132C67.1524 131.834 74.4407 148.826 74.4407 153.066C74.4407 157.305 69.5818 157.322 72.6144 162.785C75.647 168.247 85.9008 165.231 85.9008 165.231C86.0092 163.171 86.5536 161.157 87.4981 159.323C88.4425 157.488 89.7655 155.875 91.3796 154.59C96.8416 150.351 101.198 149.429 103.007 150.652C103.007 150.652 101.801 159.752 103.61 163.388C103.61 163.388 109.676 166.421 111.502 166.421C113.328 166.421 110.312 168.985 116.361 171.264C117.463 171.659 118.641 171.794 119.804 171.658C120.967 171.521 122.082 171.117 123.063 170.476C123.951 166.79 125.894 161.243 129.513 162.533C134.824 164.427 139.666 177.497 132.479 181.955C141.124 183.53 151.596 168.231 152.216 154.289C152.836 140.347 138.008 124.31 129.027 122.735Z" fill="#263238"/>
<path d="M103.275 144.67C103.275 144.67 107.732 142.274 113.194 147.402C118.656 152.529 129.279 159.383 143.352 155.612" stroke="white" stroke-width="0.5" stroke-linecap="round" stroke-linejoin="round"/>
<path d="M102.655 140.565C102.655 140.565 105.722 135.772 110.848 135.772C115.975 135.772 127.955 142.961 137.522 142.961" stroke="white" stroke-width="0.5" stroke-linecap="round" stroke-linejoin="round"/>
<path d="M99.1705 149.798C99.1705 149.798 93.3566 142.626 87.8946 148.441C82.4326 154.255 85.9008 159.752 85.9008 159.752" stroke="white" stroke-width="0.5" stroke-linecap="round" stroke-linejoin="round"/>
<path d="M75.9319 154.59C79.2636 151.585 81.3347 147.431 81.729 142.961C82.416 135.437 92.6866 128.935 99.1706 135.102" stroke="white" stroke-width="0.5" stroke-linecap="round" stroke-linejoin="round"/>
<path d="M86.5208 127.226C86.5208 127.226 96.7914 117.306 105.336 129.958" stroke="white" stroke-width="0.5" stroke-linecap="round" stroke-linejoin="round"/>
<path d="M170.109 614.974C170.109 614.974 176.426 624.793 175.722 631.111L175.035 637.428C175.035 637.428 151.864 643.779 146.955 643.779C142.045 643.779 116.059 641.316 116.059 641.316L114.936 636.858C114.858 636.529 114.895 636.183 115.041 635.878C115.188 635.573 115.435 635.327 115.741 635.183L138.912 624.375L146.217 616.381L170.109 614.974Z" fill="white" stroke="#263238" stroke-width="1.00396" stroke-miterlimit="10"/>
<path d="M150.473 638.836C156.756 639.322 168.685 635.484 175.605 633.038L175.119 637.428C175.119 637.428 151.864 643.779 146.955 643.779C142.046 643.779 116.059 641.316 116.059 641.316L115.255 638.132C119.41 638.149 142.163 638.199 150.473 638.836Z" fill="#92E3A9" stroke="#263238" stroke-width="1.00396" stroke-miterlimit="10"/>
<path d="M138.946 624.375L105.219 639.054C105.219 639.054 102.337 646.276 105.219 647.717C108.101 649.158 170.93 647.717 170.93 647.717C170.93 647.717 175.27 636.306 168.417 628.648C161.565 620.99 138.946 624.375 138.946 624.375Z" fill="white" stroke="#263238" stroke-width="1.00396" stroke-miterlimit="10"/>
<path d="M170.931 647.717C170.931 647.717 108.101 649.158 105.219 647.717C103.828 647.013 103.778 644.986 104.096 643.059H172.036C171.814 644.643 171.444 646.202 170.931 647.717Z" fill="#92E3A9" stroke="#263238" stroke-width="1.00396" stroke-miterlimit="10"/>
<path d="M122.996 369.315C122.996 369.315 114.183 408.376 110.848 432.808C107.514 457.24 105.554 506.187 106.258 511.801C106.961 517.414 142.046 611.472 142.046 611.472L145.547 619.85L170.11 614.94C170.11 614.94 158.884 579.147 154.679 559.491C150.473 539.835 141.275 507.544 141.275 501.931C141.275 496.317 163.056 389.105 164.614 382.067C166.172 375.03 173.243 364.221 173.243 364.221L126.212 363.266L122.996 369.315Z" fill="#92E3A9" stroke="#263238" stroke-width="1.00396" stroke-miterlimit="10"/>
<path d="M122.996 369.315C122.996 369.315 117.835 404.991 119.963 429.792C122.091 454.592 126.665 507.394 126.665 515.253C126.665 523.112 139.348 570.048 140.069 584.794C141.191 606.093 139.616 616.633 139.616 616.633L138.862 624.358C138.862 624.358 153.657 626.469 156.89 627.391C160.625 628.353 164.479 628.771 168.334 628.631C168.334 628.631 173.712 604.953 173.712 584.778C173.712 564.602 169.238 523.078 167.01 506.254C164.782 489.43 171.802 424.53 175.789 412.415C179.777 400.299 188.489 374.644 182.625 361.54C176.761 348.436 122.996 369.315 122.996 369.315Z" fill="#92E3A9" stroke="#263238" stroke-width="1.00396" stroke-miterlimit="10"/>
<path d="M189.143 354.971L188.607 370.924C188.607 370.924 179.057 372.818 166.189 375.046C155.567 376.89 128.893 374.56 119.913 373.689C119.094 373.616 118.338 373.224 117.807 372.596C117.277 371.968 117.016 371.157 117.081 370.338L117.952 355.926L189.143 354.971Z" fill="#263238"/>
<path d="M151.813 195.947C151.813 195.947 136.734 212.251 131.055 222.39C125.375 232.528 123.13 248.061 121.002 260.294C118.874 272.527 124.638 301.248 123.012 314.436L117.869 355.977C117.869 355.977 116.763 358.792 120.466 361.875C124.168 364.959 142.247 366.081 158.582 366.902C164.547 367.204 182.357 363.367 185.272 363.182C188.791 362.964 188.908 358.49 189.059 354.971C189.763 338.432 192.745 294.344 194.705 275.141C198.743 235.979 176.644 198.176 151.813 195.947Z" fill="white" stroke="#263238" stroke-width="1.00396" stroke-miterlimit="10"/>
<g style="mix-blend-mode:multiply">
<path d="M192.862 297.411C193.533 288.714 194.203 280.821 194.789 275.141C194.957 273.465 195.057 271.789 195.141 270.114L155.081 276.816L120.667 265.086C120.671 272.208 121.073 279.325 121.873 286.401L155.634 295.852L192.862 297.411Z" fill="#92E3A9"/>
</g>
<g style="mix-blend-mode:multiply">
<path d="M150.322 197.589C148.044 200.119 143.52 205.264 139.214 210.727L164.648 236.583L173.025 233.231L150.322 197.589Z" fill="#92E3A9"/>
</g>
<path d="M151.813 195.947C151.813 195.947 136.734 212.251 131.054 222.39C129.37 225.471 128.006 228.716 126.983 232.075L157.309 197.036C155.517 196.493 153.677 196.128 151.813 195.947Z" fill="#263238"/>
<g style="mix-blend-mode:multiply">
<path d="M122.175 253.692L155.081 264.517L195.041 259.925C194.414 249.969 192.203 240.177 188.489 230.919L156.27 243.839L127.469 230.785C125.114 238.272 123.344 245.93 122.175 253.692Z" fill="#92E3A9"/>
</g>
<g style="mix-blend-mode:multiply">
<path d="M178.822 338.432C162.132 341.235 145.007 339.835 128.994 334.36L120.968 331.612L118.472 351.72L127.62 354.284C145.011 359.147 163.187 360.548 181.117 358.407L188.506 357.518C188.891 356.704 189.107 355.821 189.143 354.921C189.344 350.447 189.696 343.945 190.148 336.488L178.822 338.432Z" fill="#92E3A9"/>
</g>
<g style="mix-blend-mode:multiply">
<path d="M183.295 311.051C166.605 313.865 149.476 312.459 133.467 306.962L123.247 303.46C123.5 307.111 123.45 310.777 123.096 314.419L121.906 324.088L132.093 326.937C149.477 331.805 167.648 333.211 185.574 331.076L190.6 330.472C191.019 323.77 191.505 316.631 192.024 309.576L183.295 311.051Z" fill="#92E3A9"/>
</g>
<path d="M26.1058 240.189L58.5015 266.239L59.8978 264.503L27.5021 238.452L26.1058 240.189Z" fill="#263238"/>
<path d="M167.412 214.028C167.412 214.028 179.291 222.121 179.559 241.241C179.676 249.62 178.805 257.445 176.878 271.169C174.951 284.893 162.989 329.584 153.673 335.014C144.358 340.443 129.898 330.188 129.898 330.188L59.9645 283.754L43.0591 270.097L34.6818 254.278L37.3123 249.251L57.9372 265.07L46.8289 254.798L49.007 252.033L53.0281 254.831L64.7563 259.221L67.3198 275.979L70.9388 278.459L137.84 302.907C137.84 302.907 137.002 266.896 137.622 260.009C138.242 253.122 139.097 235.812 146.469 223.261" fill="white"/>
<mask id="mask4_7_2327" style="mask-type:luminance" maskUnits="userSpaceOnUse" x="34" y="214" width="146" height="123">
<path d="M167.412 214.028C167.412 214.028 179.291 222.121 179.559 241.241C179.676 249.62 178.805 257.445 176.878 271.169C174.951 284.893 162.989 329.584 153.673 335.014C144.358 340.443 129.898 330.188 129.898 330.188L59.9645 283.754L43.0591 270.097L34.6818 254.278L37.3123 249.251L57.9372 265.07L46.8289 254.798L49.007 252.033L53.0281 254.831L64.7563 259.221L67.3198 275.979L70.9388 278.459L137.84 302.907C137.84 302.907 137.002 266.896 137.622 260.009C138.242 253.122 139.097 235.812 146.469 223.261" fill="white"/>
</mask>
<g mask="url(#mask4_7_2327)">
<g style="mix-blend-mode:multiply" opacity="0.5">
<path d="M137.371 275.694C137.371 288.127 137.79 302.907 137.79 302.907L70.9557 278.559L67.3367 276.079L64.7732 259.322L53.045 254.932L49.0406 252.083L46.8625 254.848L57.9373 265.07L37.3124 249.251L34.816 254.194L43.1933 270.013L60.0987 283.754L64.3544 286.586L156.756 316.363L137.371 275.694Z" fill="#92E3A9"/>
</g>
</g>
<path d="M167.412 214.028C167.412 214.028 179.291 222.121 179.559 241.241C179.676 249.62 178.805 257.445 176.878 271.169C174.951 284.893 162.989 329.584 153.673 335.014C144.358 340.443 129.898 330.188 129.898 330.188L59.9645 283.754L43.0591 270.097L34.6818 254.278L37.3123 249.251L57.9372 265.07L46.8289 254.798L49.007 252.033L53.0281 254.831L64.7563 259.221L67.3198 275.979L70.9388 278.459L137.84 302.907C137.84 302.907 137.002 266.896 137.622 260.009C138.242 253.122 139.097 235.812 146.469 223.261" stroke="#263238" stroke-width="1.00396" stroke-miterlimit="10"/>
<path d="M137.84 302.907L163.374 321.34L169.992 309.61C169.992 309.61 174.566 306.007 175.236 303.292C175.907 300.578 175.052 296.171 175.739 293.456C176.426 290.741 179.844 288.194 180.162 281.626C180.481 275.057 180.162 269.577 180.162 269.577C180.162 269.577 185.691 246.838 185.088 236.951C184.485 227.065 174.951 209.587 167.311 209.202C159.671 208.816 149.736 209.972 142.029 221.635C134.322 233.298 135.896 267.349 134.69 269.477C133.484 271.605 135.159 282.112 135.159 282.112C134.49 282.611 133.934 283.247 133.53 283.978C133.125 284.709 132.881 285.518 132.814 286.351C132.68 289.082 135.628 295.802 135.628 295.802L137.84 302.907Z" fill="white" stroke="#263238" stroke-width="1.00396" stroke-miterlimit="10"/>
<g style="mix-blend-mode:multiply">
<path d="M135.361 260.73C135.413 263.654 135.194 266.576 134.707 269.46C133.635 271.37 134.858 280 135.126 281.76C149.488 286.221 164.674 287.367 179.542 285.111C179.862 283.946 180.053 282.749 180.112 281.542C180.447 274.99 180.112 269.494 180.112 269.494C180.112 269.494 180.598 267.466 181.268 264.383C165.87 265.362 150.41 264.131 135.361 260.73Z" fill="#92E3A9"/>
</g>
<g style="mix-blend-mode:multiply">
<path d="M140.99 223.495C138.594 228.305 137.254 235.527 136.483 242.85C151.693 248.655 168.092 250.652 184.251 248.665C184.895 244.789 185.181 240.863 185.105 236.935C184.815 233.83 184.081 230.783 182.927 227.886C168.818 228.215 154.725 226.74 140.99 223.495Z" fill="#92E3A9"/>
</g>
<path d="M135.629 295.986L137.79 302.907L163.324 321.34L169.942 309.61C169.942 309.61 174.516 306.007 175.186 303.292C175.306 302.82 175.379 302.338 175.404 301.851C161.948 301.619 148.579 299.648 135.629 295.986Z" fill="#263238"/>
<path d="M154.109 627.173C154.109 627.173 154.678 612.661 157.46 591.447C160.241 570.232 153.556 540.103 152.433 535.076C151.311 530.049 153.003 518.889 151.88 514.968C150.758 511.047 145.329 494.323 148.53 474.918C151.73 455.514 154.327 404.22 154.327 404.22C154.327 404.22 146.268 397.668 143.905 389.139C141.543 380.61 143.352 377.928 143.352 377.928" stroke="#263238" stroke-width="1.00396" stroke-miterlimit="10"/>
<path d="M157.845 378.716L154.745 395.875" stroke="#263238" stroke-width="1.00396" stroke-miterlimit="10"/>
</svg>
