<svg width="100" height="125" viewBox="0 0 100 125" fill="none" xmlns="http://www.w3.org/2000/svg">
<rect width="100" height="125" fill="#1E1E1E"/>
<path d="M89.4362 40.8808L87.4946 39.646C85.3486 38.3161 84.4289 35.7513 85.1442 33.4715L85.7573 31.3817C86.7792 28.152 84.4289 24.8273 80.8522 24.2574L78.5018 23.8774C75.9471 23.4974 73.9033 21.6926 73.4945 19.3178L73.0857 17.133C72.4726 13.8083 68.8959 11.7185 65.4215 12.6684L63.1733 13.3334C60.7207 13.9983 57.9616 13.1434 56.5309 11.2436L55.1003 9.34374C52.9543 6.589 48.7645 6.20903 46.1075 8.48882L44.3703 10.0087C42.4287 11.6235 39.6695 12.0035 37.3191 10.7686L35.2753 9.72371C32.1074 8.10886 28.122 9.43873 26.6914 12.5734L25.7716 14.6633C24.8519 16.943 22.3994 18.3679 19.8446 18.1779L17.4942 18.0829C13.8154 17.893 10.8519 20.7427 11.1584 24.0674L11.3628 26.2522C11.5672 28.627 10.0344 30.9068 7.68398 31.8567L5.53798 32.7116C2.1657 34.0415 0.837228 37.7461 2.57446 40.6909L3.80075 42.5907C5.12922 44.6805 4.82265 47.3402 3.08541 49.1451L1.55256 50.7599C-0.900007 53.3247 -0.389055 57.2193 2.67665 59.1192L4.61827 60.354C6.76426 61.6839 7.68397 64.2487 6.96864 66.5285L6.04893 68.7133C5.02703 71.943 7.3774 75.2677 10.9541 75.8376L13.3044 76.2176C15.8592 76.5975 17.903 78.4024 18.3118 80.7772L18.7205 82.962C19.3337 86.2867 22.9103 88.3765 26.3848 87.4266L28.633 86.7616C31.0855 86.0967 33.8447 86.9516 35.2753 88.8514L36.706 90.6563C38.852 93.411 43.0418 93.791 45.6988 91.5112L47.436 89.9913C49.3776 88.3765 52.1367 87.9965 54.4871 89.2314L56.5309 90.2763C59.6988 91.8911 63.6842 90.5613 65.1149 87.4266L66.0346 85.3367C66.9543 83.057 69.4069 81.6321 71.9616 81.8221L74.312 81.9171C77.9909 82.107 80.9544 79.2573 80.6478 75.9326L80.5456 73.7478C80.3412 71.373 81.8741 69.0932 84.2245 68.1433L86.3705 67.2884C89.7427 65.9585 91.0712 62.2539 89.334 59.3091L88.1077 57.4093C86.7792 55.3195 87.0858 52.6598 88.823 50.8549L90.3559 49.2401C92.9106 46.7703 92.3997 42.7807 89.4362 40.8808ZM48.6623 58.8342L40.2827 66.5285L32.0053 58.7392L24.0344 51.2349L32.414 43.5406L40.3849 51.0449L59.4944 33.3765L67.7718 41.1658L48.6623 58.8342Z" fill="#AA10F2"/>
</svg>
