<svg width="92" height="86" viewBox="0 0 92 86" fill="none" xmlns="http://www.w3.org/2000/svg">
<path d="M89.4362 33.8808L87.4946 32.646C85.3486 31.3161 84.4289 28.7513 85.1442 26.4715L85.7573 24.3817C86.7792 21.152 84.4289 17.8273 80.8522 17.2574L78.5018 16.8774C75.9471 16.4974 73.9033 14.6926 73.4945 12.3178L73.0857 10.133C72.4726 6.80833 68.8959 4.71852 65.4215 5.66844L63.1733 6.33337C60.7207 6.99831 57.9616 6.14339 56.5309 4.24357L55.1003 2.34374C52.9543 -0.411003 48.7645 -0.790968 46.1075 1.48882L44.3703 3.00868C42.4287 4.62353 39.6695 5.0035 37.3191 3.76861L35.2753 2.72371C32.1074 1.10886 28.122 2.43873 26.6914 5.57345L25.7716 7.66325C24.8519 9.94304 22.3994 11.3679 19.8446 11.1779L17.4942 11.0829C13.8154 10.893 10.8519 13.7427 11.1584 17.0674L11.3628 19.2522C11.5672 21.627 10.0344 23.9068 7.68398 24.8567L5.53798 25.7116C2.1657 27.0415 0.837228 30.7461 2.57446 33.6909L3.80075 35.5907C5.12922 37.6805 4.82265 40.3402 3.08541 42.1451L1.55256 43.7599C-0.900007 46.3247 -0.389055 50.2193 2.67665 52.1192L4.61827 53.354C6.76426 54.6839 7.68397 57.2487 6.96864 59.5285L6.04893 61.7133C5.02703 64.943 7.3774 68.2677 10.9541 68.8376L13.3044 69.2176C15.8592 69.5975 17.903 71.4024 18.3118 73.7772L18.7205 75.962C19.3337 79.2867 22.9103 81.3765 26.3848 80.4266L28.633 79.7616C31.0855 79.0967 33.8447 79.9516 35.2753 81.8514L36.706 83.6563C38.852 86.411 43.0418 86.791 45.6988 84.5112L47.436 82.9913C49.3776 81.3765 52.1367 80.9965 54.4871 82.2314L56.5309 83.2763C59.6988 84.8911 63.6842 83.5613 65.1149 80.4266L66.0346 78.3367C66.9543 76.057 69.4069 74.6321 71.9616 74.8221L74.312 74.9171C77.9909 75.107 80.9544 72.2573 80.6478 68.9326L80.5456 66.7478C80.3412 64.373 81.8741 62.0932 84.2245 61.1433L86.3705 60.2884C89.7427 58.9585 91.0712 55.2539 89.334 52.3091L88.1077 50.4093C86.7792 48.3195 87.0858 45.6598 88.823 43.8549L90.3559 42.2401C92.9106 39.7703 92.3997 35.7807 89.4362 33.8808ZM48.6623 51.8342L40.2827 59.5285L32.0053 51.7392L24.0344 44.2349L32.414 36.5406L40.3849 44.0449L59.4944 26.3765L67.7718 34.1658L48.6623 51.8342Z" fill="#1093F2"/>
</svg>
